<?xml version="1.0" encoding="UTF-8"?>
<svg version="1.1" xmlns="http://www.w3.org/2000/svg" width="1200" height="1200">
<path d="M0 0 C5.78789043 4.80874304 11.11165437 9.9733932 16.4216156 15.30136108 C17.35047941 16.22937047 18.27934322 17.15737985 19.23635441 18.11351073 C21.79954063 20.6744722 24.35961728 23.23852214 26.91917503 25.80310941 C29.68549525 28.57376307 32.45472034 31.34151074 35.22358704 34.10961914 C40.01549044 38.90099915 44.80556493 43.69420125 49.59438896 48.48865891 C56.51815954 55.42056936 63.44470197 62.34970468 70.37191594 69.27817388 C81.61179982 80.52024436 92.84945043 91.76454446 104.08569336 103.01025391 C114.9982561 113.93200088 125.91187252 124.85269318 136.8269043 135.77197266 C137.8367372 136.78219965 137.8367372 136.78219965 138.86697077 137.81283526 C142.24445921 141.19162877 145.62196834 144.5704016 148.99948776 147.94916415 C177.00286683 175.96290366 205.00262024 203.98026476 233 232 C238.78789043 227.19125696 244.11165437 222.0266068 249.4216156 216.69863892 C250.35047941 215.77062953 251.27934322 214.84262015 252.23635441 213.88648927 C254.79954063 211.3255278 257.35961728 208.76147786 259.91917503 206.19689059 C262.68549525 203.42623693 265.45472034 200.65848926 268.22358704 197.89038086 C273.01549044 193.09900085 277.80556493 188.30579875 282.59438896 183.51134109 C289.51815954 176.57943064 296.44470197 169.65029532 303.37191594 162.72182612 C314.61179982 151.47975564 325.84945043 140.23545554 337.08569336 128.98974609 C347.9982561 118.06799912 358.91187252 107.14730682 369.8269043 96.22802734 C370.50012623 95.55454268 371.17334817 94.88105802 371.86697077 94.18716474 C375.24445921 90.80837123 378.62196834 87.4295984 381.99948776 84.05083585 C410.00286683 56.03709634 438.00262024 28.01973524 466 0 C469.8763884 1.80140359 472.55178713 4.27697634 475.5302124 7.28970337 C476.07674257 7.83452468 476.62327273 8.379346 477.18636441 8.94067705 C479.01672504 10.76774306 480.83984509 12.60186625 482.66308594 14.43603516 C483.97357453 15.74708786 485.28450362 17.05770038 486.59584045 18.36790466 C490.15576769 21.92725741 493.70948913 25.49274874 497.26214504 29.05935717 C500.97549204 32.78519552 504.69449283 36.50538156 508.41290283 40.22616577 C515.45393653 47.27341893 522.4898559 54.32575543 529.52396131 61.37992322 C537.53205094 69.41035736 545.54581142 77.43512213 553.56005812 85.45941091 C570.0463656 101.96663093 586.52552308 118.48097346 603 135 C601.35026601 139.23371253 598.20807154 142.07279383 595.04911995 145.21094227 C594.43006588 145.83380201 593.81101181 146.45666175 593.17319852 147.09839603 C591.08407542 149.19787895 588.98786045 151.29013559 586.89163208 153.38252258 C585.38265933 154.89594531 583.8741188 156.40979908 582.36597526 157.92404813 C578.20977801 162.0944639 574.04730215 166.2585638 569.8837707 170.42165577 C565.39888619 174.90818503 560.91971698 179.40041408 556.4397583 183.89186096 C547.14967049 193.20363098 537.85303664 202.5088409 528.5544907 211.81216357 C528.04906265 212.31785279 527.54363461 212.82354201 527.02289057 213.34455514 C526.2632592 214.10457691 526.2632592 214.10457691 525.48828175 214.87995266 C519.88015366 220.49116123 514.27373848 226.10408035 508.6673851 231.717062 C491.74212212 248.6619713 474.81524034 265.60525925 457.88156319 282.54176044 C457.33986924 283.08354845 456.79817529 283.62533647 456.24006637 284.18354229 C454.04473255 286.3792546 451.84939149 288.57495967 449.65404867 290.77066298 C448.00162318 292.42336019 446.34920016 294.07605988 444.69677734 295.72875977 C444.15075373 296.27487141 443.60473011 296.82098304 443.04216032 297.38364352 C425.87399345 314.55471783 408.71545807 331.7353674 391.56396484 348.9230957 C372.3058873 368.22185754 353.03935528 387.51212659 333.7610749 406.79070824 C331.7074338 408.84444617 329.65382766 410.89821904 327.60024643 412.95201683 C326.84174085 413.71058858 326.84174085 413.71058858 326.06791194 414.484485 C317.9152149 422.63830393 309.77070392 430.80025278 301.62901793 438.96506465 C293.45426201 447.16261002 285.27010656 455.35065232 277.07683553 463.52969775 C272.634619 467.96470996 268.1966244 472.40374868 263.76930618 476.8536377 C259.7224536 480.9209244 255.66440878 484.97667127 251.59683584 489.0232332 C250.12138983 490.49515438 248.65022631 491.97138234 247.18364109 493.45213238 C245.20118317 495.45250969 243.20420721 497.4371139 241.20256233 499.41826344 C240.62645165 500.00693749 240.05034097 500.59561155 239.45677239 501.20212421 C237.84129536 502.78199846 237.84129536 502.78199846 235 505 C230.40922057 504.52428656 227.88190847 501.29960355 224.78905773 498.17216778 C224.16619799 497.55426755 223.54333825 496.93636732 222.90160397 496.29974285 C220.79970478 494.21087904 218.70872519 492.11141011 216.61747742 490.0118866 C215.10426817 488.50356246 213.59040841 486.99589072 212.07595187 485.48881894 C207.90327103 481.3326085 203.74007411 477.16700835 199.57834423 472.99983633 C195.0936164 468.51244709 190.60031761 464.03365443 186.10813904 459.5537262 C177.3045692 450.77124903 168.5093058 441.98050446 159.71717682 433.18657609 C152.57476855 426.04279618 145.42977485 418.90161171 138.282938 411.76226234 C137.25714981 410.73752447 136.23136297 409.71278524 135.20557747 408.68804467 C134.6964059 408.17939245 134.18723434 407.67074023 133.66263333 407.14667431 C133.15254599 406.6371071 132.64245864 406.12753989 132.11691409 405.60253125 C131.3505287 404.83693185 131.3505287 404.83693185 130.56866077 404.05586579 C116.19426807 389.69606099 101.82303329 375.33310196 87.45823956 360.96369457 C86.91645155 360.42173461 86.37466353 359.87977464 85.81645771 359.32139165 C83.07029414 356.57433916 80.32415852 353.82725873 77.57803264 351.08016857 C77.03261488 350.53455978 76.48719712 349.98895099 75.92525156 349.4268086 C74.82228491 348.32345487 73.71931989 347.22009951 72.61635648 346.11674254 C55.44644604 328.9408594 38.26585736 311.77572182 21.0769043 294.61889648 C1.77808598 275.35611861 -17.51237793 256.08502903 -36.79070824 236.80174524 C-38.84445139 234.74753209 -40.89822441 232.69334882 -42.95201683 230.63918495 C-43.45773133 230.13336807 -43.96344583 229.62755118 -44.484485 229.10640652 C-52.13291995 221.45677462 -59.7879287 213.81376253 -67.44628334 206.17406273 C-76.15042015 197.49111753 -84.84563702 188.79937978 -93.52969775 180.09634873 C-97.9647208 175.65212775 -102.40375674 171.21211279 -106.8536377 166.78276443 C-110.9209356 162.73402761 -114.97668302 158.67409359 -119.0232332 154.60462312 C-120.4951554 153.12847738 -121.97138337 151.6566111 -123.45213238 150.18931987 C-125.45251284 148.20589781 -127.43711697 146.20796161 -129.41826344 144.20535564 C-130.00693749 143.62895911 -130.59561155 143.05256259 -131.20212421 142.45869949 C-132.78199846 140.84244603 -132.78199846 140.84244603 -135 138 C-134.52113461 133.66852286 -131.76631568 131.355432 -128.79258728 128.43182373 C-128.24453684 127.88121001 -127.6964864 127.3305963 -127.13182837 126.76329732 C-125.29017598 124.91669624 -123.437992 123.08103442 -121.58569336 121.24511719 C-120.26472138 119.92499124 -118.94440929 118.60420471 -117.62471008 117.2828064 C-114.03652996 113.69376399 -110.43916167 110.11405953 -106.84010768 106.53592587 C-103.08178848 102.79633437 -99.33193828 99.04827063 -95.58119202 95.30108643 C-88.47569126 88.20491761 -81.36257634 81.11643209 -74.24671322 74.0306561 C-66.14662568 65.96407676 -58.0550342 57.8889981 -49.96415508 49.81318426 C-33.31889182 33.19929606 -16.66295534 16.59614247 0 0 Z " fill="#F3B92F" transform="translate(361,695)"/>
<path d="M0 0 C3.40004292 1.34858613 5.69733805 4.08674806 8.224239 6.64808626 C8.84848752 7.26887325 9.47273603 7.88966024 10.11590118 8.52925895 C12.22254395 10.62791065 14.31824604 12.73716395 16.41422999 14.8464572 C17.93084341 16.36176335 19.4481155 17.8764105 20.96599186 19.39045157 C25.14810883 23.56583606 29.32077318 27.75055862 33.49201239 31.93680628 C37.98691568 36.44462589 42.49044487 40.94381279 46.99295009 45.44403715 C54.79698022 53.24649176 62.59553652 61.05438208 70.39029658 68.86609717 C78.56701427 77.06055514 86.74681694 85.25191318 94.93077815 93.43913718 C95.43929246 93.9478577 95.94780677 94.45657823 96.4717306 94.98071453 C99.0541472 97.5641461 101.6366192 100.14752227 104.21911255 102.73087711 C122.51926163 121.0373304 140.81244284 139.35073199 159.10154689 157.66821928 C176.87113965 175.46535723 194.64387492 193.25934732 212.42088282 211.04907866 C212.96867524 211.59726565 213.51646765 212.14545265 214.08085984 212.71025137 C219.58193079 218.21527782 225.08306579 223.72024027 230.58424772 229.22515582 C241.79117061 240.43968771 252.99766594 251.65464681 264.20390284 262.86986418 C264.71916812 263.38554133 265.23443339 263.90121847 265.76531277 264.4325222 C300.18419531 298.87901501 334.5930778 333.33549638 369.00047267 367.79346342 C367.19906908 371.66985182 364.72349632 374.34525055 361.7107693 377.32367583 C361.16594799 377.87020599 360.62112667 378.41673615 360.05979562 378.97982784 C358.23272961 380.81018846 356.39860642 382.63330852 354.56443751 384.45654936 C353.2533848 385.76703795 351.94277229 387.07796705 350.63256801 388.38930388 C347.07321526 391.94923111 343.50772393 395.50295255 339.9411155 399.05560847 C336.21527715 402.76895546 332.49509111 406.48795626 328.7743069 410.20636626 C321.72705374 417.24739996 314.67471724 424.28331932 307.62054944 431.31742473 C299.5901153 439.32551437 291.56535054 447.33927485 283.54106176 455.35352154 C267.03384173 471.83982903 250.51949921 488.3189865 234.00047267 504.79346342 C230.66751511 503.3414145 228.478127 501.52000409 225.91628611 498.95537253 C225.10714094 498.15020945 224.29799576 497.34504637 223.46433103 496.51548441 C222.58106429 495.62639198 221.69779755 494.73729956 220.78776515 493.82126494 C219.83603557 492.87040743 218.88386665 491.91998951 217.93129623 490.96997435 C215.31345832 488.35661372 212.70190626 485.73704896 210.09132254 483.11644454 C207.27562138 480.29211669 204.45415332 477.47356043 201.63337672 474.65430327 C196.74647169 469.76844758 191.86324557 464.87893967 186.98249019 459.98694105 C179.9257094 452.91391496 172.86342077 445.84640962 165.79977015 438.78024504 C154.33996931 427.31606558 142.8846431 415.84742572 131.43211329 404.37598296 C120.30619974 393.23171494 109.1781902 382.08954677 98.04734767 370.95020171 C97.36138958 370.26371817 96.67543149 369.57723463 95.96868679 368.86994857 C92.52746735 365.42611907 89.08620657 361.98233087 85.64492524 358.53856321 C57.09036376 329.96326401 28.54305629 301.38072645 0.00047267 272.79346342 C-5.78741777 277.60220647 -11.1111817 282.76685663 -16.42114293 288.09482451 C-17.35000674 289.02283389 -18.27887055 289.95084327 -19.23588174 290.90697415 C-21.79906797 293.46793562 -24.35914462 296.03198557 -26.91870236 298.59657283 C-29.68502258 301.36722649 -32.45424767 304.13497417 -35.22311437 306.90308256 C-40.01501777 311.69446257 -44.80509226 316.48766467 -49.59391629 321.28212233 C-56.51768687 328.21403279 -63.4442293 335.14316811 -70.37144328 342.0716373 C-81.61132715 353.31370778 -92.84897776 364.55800788 -104.08522069 375.80371733 C-114.99778343 386.7254643 -125.91139985 397.64615661 -136.82643163 408.56543608 C-137.49965356 409.23892074 -138.1728755 409.9124054 -138.8664981 410.60629869 C-142.24398654 413.9850922 -145.62149567 417.36386503 -148.99901509 420.74262758 C-177.00239416 448.75636708 -205.00214757 476.77372818 -232.99952733 504.79346342 C-237.41396339 501.0875285 -241.6660807 497.27659951 -245.74537694 493.20151396 C-246.27884173 492.67243142 -246.81230653 492.14334888 -247.36193692 491.59823354 C-249.12758151 489.84581715 -250.88975042 488.08995001 -252.65187108 486.33399077 C-253.9252727 485.06850172 -255.19885232 483.80319175 -256.47259557 482.53804655 C-260.63112827 478.40556414 -264.78435998 474.26777606 -268.93702733 470.12940092 C-270.3693731 468.70241871 -271.80172583 467.27544349 -273.23408544 465.84847517 C-279.18650992 459.91763955 -285.13751025 453.98538106 -291.08479344 448.04938956 C-299.60375046 439.54671736 -308.13111832 431.05268248 -316.67028176 422.57030208 C-322.6799246 416.59926794 -328.68003835 410.61876559 -334.67305696 404.63104661 C-338.25221641 401.05554823 -341.83547671 397.48439322 -345.42894017 393.92326613 C-348.80184471 390.5802882 -352.16285077 387.22580318 -355.51490247 383.86192007 C-356.74939326 382.62720737 -357.98820444 381.39679764 -359.23151242 380.17096396 C-360.92259051 378.50237776 -362.59769933 376.81926661 -364.26954686 375.1314456 C-364.7696172 374.64525736 -365.26968753 374.15906911 -365.78491151 373.65814789 C-367.12748754 372.28353567 -367.12748754 372.28353567 -368.99952733 369.79346342 C-368.46780943 365.19805105 -365.31337607 362.68945955 -362.17169511 359.58252116 C-361.55379488 358.95966141 -360.93589466 358.33680167 -360.29927018 357.69506739 C-358.21040637 355.5931682 -356.11093745 353.50218861 -354.01141393 351.41094084 C-352.50308979 349.8977316 -350.99541805 348.38387183 -349.48834627 346.8694153 C-345.33213584 342.69673446 -341.16653569 338.53353754 -336.99936366 334.37180765 C-332.51197442 329.88707983 -328.03318176 325.39378104 -323.55325353 320.90160246 C-314.77077636 312.09803262 -305.98003179 303.30276922 -297.18610342 294.51064024 C-290.04232351 287.36823197 -282.90113905 280.22323828 -275.76178968 273.07640143 C-274.7370518 272.05061323 -273.71231257 271.02482639 -272.687572 269.99904089 C-272.17891978 269.48986933 -271.67026756 268.98069776 -271.14620164 268.45609676 C-270.38185083 267.69096573 -270.38185083 267.69096573 -269.60205859 266.91037752 C-269.09165898 266.39945392 -268.58125938 265.88853033 -268.05539312 265.3621242 C-253.69558832 250.9877315 -239.33262929 236.61649671 -224.9632219 222.25170298 C-224.42126194 221.70991497 -223.87930197 221.16812696 -223.32091898 220.60992113 C-220.57386649 217.86375756 -217.82678606 215.11762195 -215.0796959 212.37149606 C-214.53408711 211.8260783 -213.98847832 211.28066055 -213.42633593 210.71871498 C-212.3229822 209.61574834 -211.21962685 208.51278331 -210.11626988 207.4098199 C-192.94038673 190.23990946 -175.77524915 173.05932079 -158.61842382 155.87036772 C-139.35564594 136.5715494 -120.08455636 117.28108549 -100.80127257 98.00275518 C-98.74705942 95.94901204 -96.69287616 93.89523902 -94.63871228 91.84144659 C-94.1328954 91.3357321 -93.62707852 90.8300176 -93.10593385 90.30897842 C-85.45630195 82.66054347 -77.81328986 75.00553472 -70.17359006 67.34718008 C-61.49064486 58.64304327 -52.79890711 49.9478264 -44.09587606 41.26376567 C-39.65165508 36.82874262 -35.21164013 32.38970668 -30.78229177 27.93982573 C-26.73355494 23.87252782 -22.67362092 19.8167804 -18.60415045 15.77023023 C-17.12800472 14.29830802 -15.65613844 12.82208005 -14.1888472 11.34133104 C-12.20542514 9.34095058 -10.20748894 7.35634646 -8.20488298 5.37519999 C-7.62848645 4.78652593 -7.05208992 4.19785188 -6.45822683 3.59133922 C-2.51810043 -0.26010139 -2.51810043 -0.26010139 0 0 Z " fill="#F3B92F" transform="translate(594.9995273314416,0.20653657615184784)"/>
<path d="M0 0 C3.97609229 1.60201018 6.6463416 4.37226179 9.60614014 7.3656311 C10.1608374 7.91861952 10.71553467 8.47160794 11.28704095 9.04135358 C13.14504033 10.89605797 14.99579984 12.75782163 16.84667969 14.61962891 C18.17687246 15.95038579 19.50750573 17.2807025 20.83854675 18.61061096 C24.45219109 22.22368078 28.05962986 25.84288996 31.66600323 29.46321535 C35.43540495 33.24510789 39.21045994 37.02134863 42.98492432 40.79818726 C50.13220573 47.95168828 57.27437301 55.11027291 64.4147265 62.27068841 C72.5437331 70.42203903 80.6784101 78.56772068 88.81357336 86.71292615 C105.54870879 103.46897448 122.27669444 120.23214548 139 137 C137.39798982 140.97609229 134.62773821 143.6463416 131.6343689 146.60614014 C131.08138048 147.1608374 130.52839206 147.71553467 129.95864642 148.28704095 C128.10394203 150.14504033 126.24217837 151.99579984 124.38037109 153.84667969 C123.04961421 155.17687246 121.7192975 156.50750573 120.38938904 157.83854675 C116.77631922 161.45219109 113.15711004 165.05962986 109.53678465 168.66600323 C105.75489211 172.43540495 101.97865137 176.21045994 98.20181274 179.98492432 C91.04831172 187.13220573 83.88972709 194.27437301 76.72931159 201.4147265 C68.57796097 209.5437331 60.43227932 217.6784101 52.28707385 225.81357336 C35.53102552 242.54870879 18.76785452 259.27669444 2 276 C-1.97609229 274.39798982 -4.6463416 271.62773821 -7.60614014 268.6343689 C-8.1608374 268.08138048 -8.71553467 267.52839206 -9.28704095 266.95864642 C-11.14504033 265.10394203 -12.99579984 263.24217837 -14.84667969 261.38037109 C-16.17687246 260.04961421 -17.50750573 258.7192975 -18.83854675 257.38938904 C-22.45219109 253.77631922 -26.05962986 250.15711004 -29.66600323 246.53678465 C-33.43540495 242.75489211 -37.21045994 238.97865137 -40.98492432 235.20181274 C-48.13220573 228.04831172 -55.27437301 220.88972709 -62.4147265 213.72931159 C-70.5437331 205.57796097 -78.6784101 197.43227932 -86.81357336 189.28707385 C-103.54870879 172.53102552 -120.27669444 155.76785452 -137 139 C-135.39798982 135.02390771 -132.62773821 132.3536584 -129.6343689 129.39385986 C-129.08138048 128.8391626 -128.52839206 128.28446533 -127.95864642 127.71295905 C-126.10394203 125.85495967 -124.24217837 124.00420016 -122.38037109 122.15332031 C-121.04961421 120.82312754 -119.7192975 119.49249427 -118.38938904 118.16145325 C-114.77631922 114.54780891 -111.15711004 110.94037014 -107.53678465 107.33399677 C-103.75489211 103.56459505 -99.97865137 99.78954006 -96.20181274 96.01507568 C-89.04831172 88.86779427 -81.88972709 81.72562699 -74.72931159 74.5852735 C-66.57796097 66.4562669 -58.43227932 58.3215899 -50.28707385 50.18642664 C-33.53102552 33.45129121 -16.76785452 16.72330556 0 0 Z " fill="#F2B92E" transform="translate(594,462)"/>
<path d="M0 0 C3.9425255 1.59523825 6.59302432 4.31868845 9.5302124 7.28970337 C10.35000765 8.10693534 10.35000765 8.10693534 11.18636441 8.94067705 C13.01672504 10.76774306 14.83984509 12.60186625 16.66308594 14.43603516 C17.97357453 15.74708786 19.28450362 17.05770038 20.59584045 18.36790466 C24.15576769 21.92725741 27.70948913 25.49274874 31.26214504 29.05935717 C34.97549204 32.78519552 38.69449283 36.50538156 42.41290283 40.22616577 C49.45393653 47.27341893 56.4898559 54.32575543 63.52396131 61.37992322 C71.53205094 69.41035736 79.54581142 77.43512213 87.56005812 85.45941091 C104.0463656 101.96663093 120.52552308 118.48097346 137 135 C135.40476175 138.9425255 132.68131155 141.59302432 129.71029663 144.5302124 C129.16547532 145.07674257 128.620654 145.62327273 128.05932295 146.18636441 C126.23225694 148.01672504 124.39813375 149.83984509 122.56396484 151.66308594 C121.25291214 152.97357453 119.94229962 154.28450362 118.63209534 155.59584045 C115.07274259 159.15576769 111.50725126 162.70948913 107.94064283 166.26214504 C104.21480448 169.97549204 100.49461844 173.69449283 96.77383423 177.41290283 C89.72658107 184.45393653 82.67424457 191.4898559 75.62007678 198.52396131 C67.58964264 206.53205094 59.56487787 214.54581142 51.54058909 222.56005812 C35.03336907 239.0463656 18.51902654 255.52552308 2 272 C-1.9425255 270.40476175 -4.59302432 267.68131155 -7.5302124 264.71029663 C-8.07674257 264.16547532 -8.62327273 263.620654 -9.18636441 263.05932295 C-11.01672504 261.23225694 -12.83984509 259.39813375 -14.66308594 257.56396484 C-15.97357453 256.25291214 -17.28450362 254.94229962 -18.59584045 253.63209534 C-22.15576769 250.07274259 -25.70948913 246.50725126 -29.26214504 242.94064283 C-32.97549204 239.21480448 -36.69449283 235.49461844 -40.41290283 231.77383423 C-47.45393653 224.72658107 -54.4898559 217.67424457 -61.52396131 210.62007678 C-69.53205094 202.58964264 -77.54581142 194.56487787 -85.56005812 186.54058909 C-102.0463656 170.03336907 -118.52552308 153.51902654 -135 137 C-133.40476175 133.0574745 -130.68131155 130.40697568 -127.71029663 127.4697876 C-127.16547532 126.92325743 -126.620654 126.37672727 -126.05932295 125.81363559 C-124.23225694 123.98327496 -122.39813375 122.16015491 -120.56396484 120.33691406 C-119.25291214 119.02642547 -117.94229962 117.71549638 -116.63209534 116.40415955 C-113.07274259 112.84423231 -109.50725126 109.29051087 -105.94064283 105.73785496 C-102.21480448 102.02450796 -98.49461844 98.30550717 -94.77383423 94.58709717 C-87.72658107 87.54606347 -80.67424457 80.5101441 -73.62007678 73.47603869 C-65.58964264 65.46794906 -57.56487787 57.45418858 -49.54058909 49.43994188 C-33.03336907 32.9536344 -16.51902654 16.47447692 0 0 Z " fill="#F2B92F" transform="translate(1058,464)"/>
<path d="M0 0 C3.9425255 1.59523825 6.59302432 4.31868845 9.5302124 7.28970337 C10.35000765 8.10693534 10.35000765 8.10693534 11.18636441 8.94067705 C13.01672504 10.76774306 14.83984509 12.60186625 16.66308594 14.43603516 C17.97357453 15.74708786 19.28450362 17.05770038 20.59584045 18.36790466 C24.15576769 21.92725741 27.70948913 25.49274874 31.26214504 29.05935717 C34.97549204 32.78519552 38.69449283 36.50538156 42.41290283 40.22616577 C49.45393653 47.27341893 56.4898559 54.32575543 63.52396131 61.37992322 C71.53205094 69.41035736 79.54581142 77.43512213 87.56005812 85.45941091 C104.0463656 101.96663093 120.52552308 118.48097346 137 135 C135.40476175 138.9425255 132.68131155 141.59302432 129.71029663 144.5302124 C129.16547532 145.07674257 128.620654 145.62327273 128.05932295 146.18636441 C126.23225694 148.01672504 124.39813375 149.83984509 122.56396484 151.66308594 C121.25291214 152.97357453 119.94229962 154.28450362 118.63209534 155.59584045 C115.07274259 159.15576769 111.50725126 162.70948913 107.94064283 166.26214504 C104.21480448 169.97549204 100.49461844 173.69449283 96.77383423 177.41290283 C89.72658107 184.45393653 82.67424457 191.4898559 75.62007678 198.52396131 C67.58964264 206.53205094 59.56487787 214.54581142 51.54058909 222.56005812 C35.03336907 239.0463656 18.51902654 255.52552308 2 272 C-1.85713191 270.4061101 -4.3443484 267.93855467 -7.3024292 265.0322876 C-8.08547247 264.26662448 -8.08547247 264.26662448 -8.8843348 263.48549342 C-10.63178458 261.7741114 -12.37205761 260.05561759 -14.11230469 258.33691406 C-15.36378641 257.10778881 -16.61560033 255.87900173 -17.86772156 254.65052795 C-21.97737976 250.6139192 -26.07579174 246.56600285 -30.171875 242.515625 C-30.86934751 241.82604423 -31.56682001 241.13646345 -32.28542805 240.42598629 C-38.86522412 233.91902181 -45.44005071 227.40706602 -52.00475693 220.88487625 C-60.39437711 212.55039728 -68.80634357 204.23996164 -77.2501781 195.96040368 C-83.18977765 190.1324743 -89.10224485 184.27787243 -94.99549603 178.40308356 C-98.51400737 174.89707316 -102.04332764 171.40386291 -105.60237885 167.93897247 C-108.95273621 164.67617303 -112.26812246 161.3814746 -115.5601902 158.0599041 C-116.77028904 156.85046075 -117.99233484 155.65282914 -119.22715569 154.46863747 C-124.89564848 149.0204289 -129.66962338 144.23079961 -130.46478271 136.01345825 C-129.5938862 126.82451998 -123.4567163 121.59813184 -117.15820312 115.56884766 C-115.88427479 114.29887361 -114.61343172 113.02579834 -113.34544373 111.74989319 C-109.91130912 108.31175771 -106.43588298 104.91836671 -102.95114708 101.53163195 C-99.31055536 97.97883404 -95.70983164 94.38608018 -92.10461426 90.79745483 C-85.27934323 84.01561772 -78.41919333 77.2702429 -71.54564524 70.53737867 C-63.71888635 62.86735508 -55.93206312 55.15731836 -48.14826679 47.44373631 C-32.1427508 31.58437499 -16.08796838 15.77568342 0 0 Z " fill="#F3B92F" transform="translate(129,464)"/>
</svg>
